<svg width="24" height="24" viewBox="0 0 24 24" fill="none" xmlns="http://www.w3.org/2000/svg">
<path d="M18.9067 7.85321C18.8579 6.14738 18.1367 4.53002 16.9004 3.35366C15.6641 2.1773 14.0129 1.53732 12.3067 1.57321C10.9269 1.55902 9.57666 1.97336 8.44228 2.75907C7.30789 3.54478 6.44527 4.66314 5.97341 5.95988C4.51098 6.16158 3.16999 6.88288 2.1956 7.99192C1.22121 9.10096 0.678523 10.5236 0.666748 11.9999C0.725913 13.6397 1.43001 15.19 2.62597 16.3135C3.82192 17.4371 5.41305 18.0431 7.05341 17.9999C7.23985 18.013 7.42698 18.013 7.61341 17.9999H9.21341C9.11622 17.763 9.06639 17.5093 9.06675 17.2532C9.07156 16.9114 9.16333 16.5764 9.33341 16.2799H7.46675H7.05341C5.86726 16.3202 4.71238 15.895 3.83543 15.0953C2.95849 14.2956 2.42901 13.1847 2.36008 11.9999C2.37085 10.927 2.76976 9.8943 3.48304 9.09278C4.19632 8.29127 5.17571 7.77515 6.24008 7.63988L7.25341 7.47988L7.58675 6.50654C7.94383 5.546 8.58892 4.71922 9.43379 4.13927C10.2787 3.55932 11.2821 3.25452 12.3067 3.26654C13.5642 3.23751 14.7828 3.70322 15.7004 4.56348C16.6181 5.42375 17.1613 6.60982 17.2134 7.86654V9.33321L18.6667 9.53321C19.4819 9.63754 20.2332 10.0292 20.7855 10.6377C21.3378 11.2462 21.655 12.0318 21.6801 12.8532C21.649 13.76 21.2677 14.6194 20.6163 15.251C19.9649 15.8825 19.094 16.237 18.1867 16.2399H17.9867H17.8801H16.5467C16.3165 15.0421 15.6746 13.9626 14.7323 13.1882C13.7899 12.4139 12.6064 11.9935 11.3867 11.9999C11.2666 11.9848 11.1447 11.9954 11.029 12.031C10.9133 12.0667 10.8066 12.1265 10.7158 12.2066C10.625 12.2867 10.5523 12.3852 10.5025 12.4955C10.4527 12.6058 10.427 12.7255 10.427 12.8465C10.427 12.9676 10.4527 13.0873 10.5025 13.1976C10.5523 13.3079 10.625 13.4064 10.7158 13.4865C10.8066 13.5666 10.9133 13.6264 11.029 13.662C11.1447 13.6977 11.2666 13.7083 11.3867 13.6932C12.2846 13.7484 13.1276 14.144 13.7438 14.7993C14.36 15.4547 14.7031 16.3203 14.7031 17.2199C14.7031 18.1194 14.36 18.9851 13.7438 19.6404C13.1276 20.2957 12.2846 20.6913 11.3867 20.7465C11.2666 20.7314 11.1447 20.7421 11.029 20.7777C10.9133 20.8134 10.8066 20.8732 10.7158 20.9533C10.625 21.0334 10.5523 21.1318 10.5025 21.2422C10.4527 21.3525 10.427 21.4722 10.427 21.5932C10.427 21.7143 10.4527 21.8339 10.5025 21.9443C10.5523 22.0546 10.625 22.1531 10.7158 22.2331C10.8066 22.3132 10.9133 22.3731 11.029 22.4087C11.1447 22.4444 11.2666 22.455 11.3867 22.4399C12.6374 22.4377 13.8458 21.9871 14.7925 21.17C15.7393 20.3529 16.3617 19.2234 16.5467 17.9865H17.9467C18.0351 18.0005 18.1251 18.0005 18.2134 17.9865C19.5661 17.9625 20.8565 17.4135 21.8119 16.4556C22.7673 15.4977 23.3129 14.206 23.3334 12.8532C23.3105 11.6296 22.8524 10.4541 22.0411 9.53779C21.2298 8.62146 20.1186 8.02421 18.9067 7.85321Z" fill="url(#paint0_linear_25_11693)"/>
<path d="M11.1733 15.1333H11.12C9.98596 15.1333 9.06665 16.0526 9.06665 17.1866V17.24C9.06665 18.374 9.98596 19.2933 11.12 19.2933H11.1733C12.3073 19.2933 13.2267 18.374 13.2267 17.24V17.1866C13.2267 16.0526 12.3073 15.1333 11.1733 15.1333Z" fill="url(#paint1_linear_25_11693)"/>
<defs>
<linearGradient id="paint0_linear_25_11693" x1="12.0001" y1="22.4265" x2="12.0001" y2="1.57321" gradientUnits="userSpaceOnUse">
<stop stop-color="#198AB3"/>
<stop offset="0.09" stop-color="#1F9DC4"/>
<stop offset="0.24" stop-color="#28B5D9"/>
<stop offset="0.4" stop-color="#2DC6E9"/>
<stop offset="0.57" stop-color="#31D1F2"/>
<stop offset="0.78" stop-color="#32D4F5"/>
</linearGradient>
<linearGradient id="paint1_linear_25_11693" x1="11.1467" y1="15.1333" x2="11.1467" y2="19.28" gradientUnits="userSpaceOnUse">
<stop stop-color="#C69AEB"/>
<stop offset="1" stop-color="#6F4BB2"/>
</linearGradient>
</defs>
</svg>
