<svg width="24" height="24" viewBox="0 0 24 24" fill="none" xmlns="http://www.w3.org/2000/svg">
<g clip-path="url(#clip0_25_11696)">
<path d="M7.73326 1.62646L3.91992 2.33313V7.53313L7.73326 8.34646L11.5599 6.81313V2.93313L7.73326 1.62646Z" fill="url(#paint0_linear_25_11696)"/>
<path d="M3.91992 2.33351V7.53351L7.77326 8.34684V1.68018L3.91992 2.33351ZM5.54659 7.13351L4.46659 6.92018V2.92018L5.54659 2.74684V7.13351ZM7.22659 7.44018L5.98659 7.24018V2.66684L7.22659 2.45351V7.44018Z" fill="#341A6E"/>
<path d="M15.9867 1.69336L12.1733 2.40003V7.60003L15.9867 8.41336L19.8 6.86669V3.00003L15.9867 1.69336Z" fill="url(#paint1_linear_25_11696)"/>
<path d="M12.1733 2.39992V7.59991L16 8.41325V1.74658L12.1733 2.39992ZM13.7867 7.19992L12.7067 6.98658V2.98658L13.7867 2.81325V7.19992ZM15.4667 7.50658L14.2267 7.30658V2.73325L15.4667 2.50658V7.50658Z" fill="#341A6E"/>
<path d="M3.82676 8.7998L0.0134277 9.50647V14.7065L3.82676 15.5198L7.65343 13.9865V10.1065L3.82676 8.7998Z" fill="url(#paint2_linear_25_11696)"/>
<path d="M0 9.50681V14.6668L3.85333 15.4801V8.81348L0 9.50681ZM1.61333 14.3201L0.533333 14.0935V10.0935L1.61333 9.90681V14.3201ZM3.30667 14.6668L2.06667 14.4668V9.84014L3.30667 9.62681V14.6668Z" fill="#341A6E"/>
<path d="M12.0533 8.74658L8.23999 9.45325V14.6532L12.0533 15.4799L15.8667 13.9332V10.0532L12.0533 8.74658Z" fill="url(#paint3_linear_25_11696)"/>
<path d="M8.23999 9.45348V14.6668L12.08 15.4801V8.81348L8.23999 9.45348ZM9.85332 14.2668L8.77332 14.0401V10.0401L9.85332 9.85348V14.2668ZM11.5333 14.5601L10.2933 14.3601V9.78681L11.5333 9.57348V14.5601Z" fill="#341A6E"/>
<path d="M20.2799 8.81348L16.4666 9.52014V14.7201L20.2799 15.5335L24.1066 14.0001V10.1201L20.2799 8.81348Z" fill="url(#paint4_linear_25_11696)"/>
<path d="M16.4666 9.52014V14.6668L20.3199 15.4801V8.81348L16.4666 9.52014ZM18.0932 14.3335L17.0132 14.1068V10.1068L18.0932 9.92014V14.3335ZM19.7732 14.6268L18.5332 14.4268V9.85348L19.7732 9.64014V14.6268Z" fill="#341A6E"/>
<path d="M7.63999 16.0532L3.82666 16.7466V21.9466L7.63999 22.7732L11.4667 21.2266V17.3599L7.63999 16.0532Z" fill="url(#paint5_linear_25_11696)"/>
<path d="M3.82666 16.7467V21.9467L7.67999 22.7733V16L3.82666 16.7467ZM5.45333 21.56L4.37333 21.3333V17.3333L5.45333 17.1467V21.56ZM7.13333 21.8667L5.89333 21.6667V17.08L7.13333 16.8667V21.8667Z" fill="#341A6E"/>
<path d="M15.88 16.1064L12.0667 16.8131V22.0131L15.88 22.8264L19.7067 21.2931V17.4131L15.88 16.1064Z" fill="url(#paint6_linear_25_11696)"/>
<path d="M12.0667 16.8135V22.0135L15.92 22.8268V16.1602L12.0667 16.8135ZM13.6933 21.6268L12.6133 21.4002V17.4002L13.6933 17.2135V21.6268ZM15.3733 21.9202L14.1333 21.7202V17.1468L15.3733 16.9335V21.9202Z" fill="#341A6E"/>
</g>
<defs>
<linearGradient id="paint0_linear_25_11696" x1="3.91992" y1="4.98646" x2="11.5599" y2="4.98646" gradientUnits="userSpaceOnUse">
<stop stop-color="#B77AF4"/>
<stop offset="1" stop-color="#773ADC"/>
</linearGradient>
<linearGradient id="paint1_linear_25_11696" x1="12.1733" y1="5.05336" x2="19.8" y2="5.05336" gradientUnits="userSpaceOnUse">
<stop stop-color="#B77AF4"/>
<stop offset="1" stop-color="#773ADC"/>
</linearGradient>
<linearGradient id="paint2_linear_25_11696" x1="0.0134277" y1="12.1598" x2="7.64009" y2="12.1598" gradientUnits="userSpaceOnUse">
<stop stop-color="#B77AF4"/>
<stop offset="1" stop-color="#773ADC"/>
</linearGradient>
<linearGradient id="paint3_linear_25_11696" x1="8.23999" y1="12.1066" x2="15.8667" y2="12.1066" gradientUnits="userSpaceOnUse">
<stop stop-color="#B77AF4"/>
<stop offset="1" stop-color="#773ADC"/>
</linearGradient>
<linearGradient id="paint4_linear_25_11696" x1="16.4666" y1="12.1735" x2="24.1066" y2="12.1735" gradientUnits="userSpaceOnUse">
<stop stop-color="#B77AF4"/>
<stop offset="1" stop-color="#773ADC"/>
</linearGradient>
<linearGradient id="paint5_linear_25_11696" x1="3.82666" y1="19.4132" x2="11.4667" y2="19.4132" gradientUnits="userSpaceOnUse">
<stop stop-color="#B77AF4"/>
<stop offset="1" stop-color="#773ADC"/>
</linearGradient>
<linearGradient id="paint6_linear_25_11696" x1="12.0667" y1="19.4664" x2="19.7067" y2="19.4664" gradientUnits="userSpaceOnUse">
<stop stop-color="#B77AF4"/>
<stop offset="1" stop-color="#773ADC"/>
</linearGradient>
<clipPath id="clip0_25_11696">
<rect width="24" height="24" fill="white"/>
</clipPath>
</defs>
</svg>
