<svg width="24" height="24" viewBox="0 0 24 24" fill="none" xmlns="http://www.w3.org/2000/svg">
<path d="M11.3821 11.3344H0.5V2.06607C0.499983 1.65318 0.664606 1.25699 0.958051 0.963695C1.2515 0.670406 1.65002 0.503754 2.0669 0.5H11.3821V11.3344ZM1.85127 9.99609H10.0308V1.80981H2.0669C2.00971 1.80981 1.95487 1.83231 1.91443 1.87235C1.87399 1.9124 1.85127 1.96672 1.85127 2.02336V9.99609Z" fill="#B3B3B3"/>
<path d="M23.4992 11.3344H12.6172V0.5H21.9323C22.3492 0.503754 22.7478 0.670406 23.0412 0.963695C23.3346 1.25699 23.4993 1.65318 23.4992 2.06607V11.3344ZM13.9685 9.99609H22.148V2.06607C22.1545 2.03469 22.1537 2.00226 22.1458 1.97119C22.1379 1.94012 22.1231 1.91121 22.1024 1.8866C22.0817 1.86199 22.0556 1.84231 22.0262 1.82902C21.9968 1.81572 21.9647 1.80916 21.9323 1.80981H13.9685V9.99609Z" fill="#B3B3B3"/>
<path d="M11.3821 23.2821H2.0669C1.65381 23.2821 1.25743 23.1205 0.963987 22.8326C0.670545 22.5446 0.50379 22.1536 0.5 21.7445V12.4619H11.3821V23.2821ZM1.85127 13.8002V21.7445C1.85127 21.8011 1.87399 21.8554 1.91443 21.8955C1.95487 21.9355 2.00971 21.958 2.0669 21.958H10.0308V13.8002H1.85127Z" fill="#B3B3B3"/>
<path d="M21.9323 23.2821H12.6172V12.4619H23.4992V21.7445C23.4955 22.1536 23.3287 22.5446 23.0353 22.8326C22.7418 23.1205 22.3454 23.2821 21.9323 23.2821V23.2821ZM13.9685 21.9438H21.9323C21.9895 21.9438 22.0444 21.9213 22.0848 21.8812C22.1253 21.8412 22.148 21.7869 22.148 21.7302V13.8002H13.9685V21.9438Z" fill="#B3B3B3"/>
<path d="M20.1504 14.0854C20.1294 13.2164 19.7991 12.3828 19.2178 11.7315C18.6366 11.0803 17.8417 10.6534 16.9735 10.5261C16.9285 9.31513 16.4041 8.17033 15.5138 7.33915C14.6234 6.50796 13.4386 6.05715 12.2153 6.08415C11.231 6.07374 10.2675 6.36503 9.45681 6.91811C8.64616 7.47119 8.02802 8.259 7.6871 9.17359C6.63986 9.31621 5.67869 9.8252 4.97738 10.6086C4.27607 11.3919 3.88088 12.3979 3.86328 13.4447C3.90457 14.6116 4.40961 15.7151 5.26845 16.5151C6.1273 17.315 7.27042 17.7466 8.44899 17.7158H16.3122H16.5135C17.4738 17.6869 18.3862 17.2942 19.0629 16.6188C19.7395 15.9434 20.1288 15.0366 20.1504 14.0854V14.0854Z" fill="url(#paint0_linear_25_11686)"/>
<defs>
<linearGradient id="paint0_linear_25_11686" x1="11.9997" y1="4.26182" x2="11.9997" y2="20.3496" gradientUnits="userSpaceOnUse">
<stop offset="0.18" stop-color="#5EA0EF"/>
<stop offset="1" stop-color="#0078D4"/>
</linearGradient>
</defs>
</svg>
