<svg width="24" height="24" viewBox="0 0 24 24" fill="none" xmlns="http://www.w3.org/2000/svg">
<path d="M7.11315 1.83338C7.26281 1.38988 7.67871 1.09131 8.14677 1.09131H14.9999L7.88676 22.1675C7.73708 22.611 7.32119 22.9095 6.85313 22.9095H1.51949C0.773167 22.9095 0.247207 22.1768 0.485867 21.4698L7.11315 1.83338Z" fill="url(#paint0_linear_79_72382)"/>
<path d="M18.0689 15.2729H7.26834C6.81453 15.2729 6.59542 15.8288 6.92718 16.1384L13.8673 22.6159C14.0693 22.8044 14.3353 22.9093 14.6116 22.9093H20.7271L18.0689 15.2729Z" fill="#0078D4"/>
<path d="M8.14677 1.09131C7.67871 1.09131 7.26281 1.38988 7.11315 1.83338L0.485867 21.4698C0.247207 22.1768 0.773167 22.9095 1.51949 22.9095H6.85313C7.32119 22.9095 7.73708 22.611 7.88676 22.1675L9.20428 18.2636L13.8673 22.6158C14.0693 22.8044 14.3353 22.9092 14.6117 22.9092H20.7271L18.0689 15.2728H10.2137L14.9999 1.09131H8.14677Z" fill="url(#paint1_linear_79_72382)"/>
<path d="M16.8866 1.83288C16.737 1.3894 16.3211 1.09082 15.853 1.09082H8.18164H8.21664C8.68469 1.09082 9.1006 1.3894 9.25027 1.83288L15.8775 21.4693C16.1162 22.1764 15.5902 22.909 14.8439 22.909H14.7271H22.4803C23.2266 22.909 23.7526 22.1764 23.5139 21.4693L16.8866 1.83288Z" fill="url(#paint2_linear_79_72382)"/>
<defs>
<linearGradient id="paint0_linear_79_72382" x1="8.10008" y1="1.84651" x2="0.984155" y2="22.8687" gradientUnits="userSpaceOnUse">
<stop stop-color="#114A8B"/>
<stop offset="1" stop-color="#0669BC"/>
</linearGradient>
<linearGradient id="paint1_linear_79_72382" x1="13.7869" y1="15.2754" x2="12.1426" y2="15.8314" gradientUnits="userSpaceOnUse">
<stop stop-opacity="0.3"/>
<stop offset="0.0711768" stop-opacity="0.2"/>
<stop offset="0.321031" stop-opacity="0.1"/>
<stop offset="0.623053" stop-opacity="0.05"/>
<stop offset="1" stop-opacity="0"/>
</linearGradient>
<linearGradient id="paint2_linear_79_72382" x1="12.6114" y1="1.84606" x2="20.4223" y2="22.6566" gradientUnits="userSpaceOnUse">
<stop stop-color="#3CCBF4"/>
<stop offset="1" stop-color="#2892DF"/>
</linearGradient>
</defs>
</svg>
