<svg width="24" height="24" viewBox="0 0 24 24" fill="none" xmlns="http://www.w3.org/2000/svg">
<path fill-rule="evenodd" clip-rule="evenodd" d="M12.1191 22.9994H12.2508C16.8146 22.9994 20.5007 21.7094 20.5007 20.0755V4.46655H12.1191V22.9994Z" fill="url(#paint0_linear_25_11713)"/>
<path fill-rule="evenodd" clip-rule="evenodd" d="M4 4.42383V20.0327C4 21.6667 7.68613 22.9567 12.2499 22.9567V4.42383H4Z" fill="url(#paint1_linear_25_11713)"/>
<path fill-rule="evenodd" clip-rule="evenodd" d="M20.4998 4.42398C20.4998 6.05797 16.8137 7.34796 12.2499 7.34796C7.68613 7.34796 4 6.05797 4 4.42398C4 2.78999 7.68613 1.5 12.2499 1.5C16.8137 1.5 20.4998 2.78999 20.4998 4.42398Z" fill="white"/>
<path fill-rule="evenodd" clip-rule="evenodd" d="M18.7884 4.25188C18.7884 5.32687 15.8483 6.18687 12.2499 6.18687C8.65156 6.18687 5.71143 5.32687 5.71143 4.25188C5.71143 3.17689 8.65156 2.31689 12.2499 2.31689C15.8483 2.31689 18.7884 3.17689 18.7884 4.25188Z" fill="#198AB3"/>
<path fill-rule="evenodd" clip-rule="evenodd" d="M17.4281 5.45587C18.3057 5.11188 18.7884 4.68188 18.7884 4.25188C18.7884 3.17689 15.8483 2.31689 12.2499 2.31689C8.65156 2.31689 5.71143 3.17689 5.71143 4.25188C5.71143 4.68188 6.19413 5.11188 7.07178 5.45587C8.3005 5.02588 10.1436 4.68188 12.2499 4.68188C14.3563 4.68188 16.1994 5.02588 17.4281 5.45587Z" fill="#50E6FF"/>
<defs>
<linearGradient id="paint0_linear_25_11713" x1="4" y1="13.6798" x2="17.2236" y2="13.5865" gradientUnits="userSpaceOnUse">
<stop stop-color="#005BA1"/>
<stop offset="0.07" stop-color="#0060A9"/>
<stop offset="0.36" stop-color="#0071C8"/>
<stop offset="0.52" stop-color="#0078D4"/>
<stop offset="0.64" stop-color="#0074CD"/>
<stop offset="0.82" stop-color="#006ABB"/>
<stop offset="1" stop-color="#005BA1"/>
</linearGradient>
<linearGradient id="paint1_linear_25_11713" x1="4" y1="13.6798" x2="17.2236" y2="13.5865" gradientUnits="userSpaceOnUse">
<stop stop-color="#005BA1"/>
<stop offset="0.07" stop-color="#0060A9"/>
<stop offset="0.36" stop-color="#0071C8"/>
<stop offset="0.52" stop-color="#0078D4"/>
<stop offset="0.64" stop-color="#0074CD"/>
<stop offset="0.82" stop-color="#006ABB"/>
<stop offset="1" stop-color="#005BA1"/>
</linearGradient>
</defs>
</svg>
